<svg id="Layer_1" data-name="Layer 1" xmlns="http://www.w3.org/2000/svg" xmlns:xlink="http://www.w3.org/1999/xlink" viewBox="0 0 1179.12 1114.2"><defs><style>.cls-1{fill:url(#linear-gradient);}.cls-2{fill:url(#linear-gradient-2);}.cls-3{fill:url(#linear-gradient-3);}</style><linearGradient id="linear-gradient" x1="-241.44" y1="-228.06" x2="2215.04" y2="1777.77" gradientUnits="userSpaceOnUse"><stop offset="0" stop-color="aqua"/><stop offset="1"/></linearGradient><linearGradient id="linear-gradient-2" x1="-452.91" y1="52.06" x2="2003.57" y2="2057.89" xlink:href="#linear-gradient"/><linearGradient id="linear-gradient-3" x1="1987.25" y1="1474.95" x2="-1982.44" y2="-1175.93" xlink:href="#linear-gradient"/></defs><title>AFNC</title><path class="cls-1" d="M1185.12,5l-.09.19c-93.89,210.6-147.73,159.27-275.31,211a98.5,98.5,0,0,0-61.67,95.09c.19,4.14.56,6.59.56,6.59l241.7-45S1081.11,427,952.43,431.87c-80.35,1-98.15,1.41-105.24,43.69,0,0,.19,106.12-.18,176.23.18.89,7.36,1.93,7.55,2.79,13.22,59.77,10,78,45.87,133.13,1.35,2.06,2.7,4.11,4.17,6.14,23.1,31.69,52.4,184.76-85.85,252.72a30.14,30.14,0,0,0,6.14-5.06l0,0c4.36-4.54,9.73-12.4,12-24.67,4.66-25-3.47-68.51-59.22-140.34C672.46,740.92,494.45,525.81,494.45,525.81V979L267.28,1119.16l-.09-2.39c46.67-22,84.59-106.68,89.68-209.43,6-121.59-36.17-222.5-94.28-225.39a52.42,52.42,0,0,0-9.3.37L253,671.77c.76.09,1.53.15,2.33.18,56.33,2.79,106.68-89.25,112.45-205.6s-35.23-212.93-91.56-215.72c-12.58-.61-24.82,3.47-36.36,11.51l-1.28-39.77a175.08,175.08,0,0,0-96.16,336.12A175.26,175.26,0,0,1,13.76,336S57.45,195.28,118.88,108.64,329.11,87,480,59l-53.36,96,28.48-15.65s75.72,163.62,144.5,256,186,237.22,186,237.22-204.31-330.5-212.23-356.3-28.47-89.53,16.75-162.7c0,0,43.57,241.46,245.46,537.48V171.47s-2.52-91.06,82.13-106,174.61.31,267.36-60.47Z" transform="translate(-6 -4.96)"/><path class="cls-2" d="M115.92,598.67C171.41,606.36,191.48,558,224.39,523,233,579.93,184.82,610.37,115.92,598.67Z" transform="translate(-6 -4.96)"/><path class="cls-3" d="M397.56,164.24S308.3,327,623.8,571.29c378.59,335.6,165.69,484.62,165.69,484.62S945,892.86,566.52,610.08C141,267.64,450.93,68.22,450.93,68.22" transform="translate(-6 -4.96)"/></svg>